{
  "accessors": [
    {
      "bufferView": 2,
      "componentType": 5126,
      "count": 33859,
      "max": [
        135.4239501953125,
        67.802978515625,
        9.264633178710938
      ],
      "min": [
        -54.528076171875,
        -67.802978515625,
        -31.37347412109375
      ],
      "type": "VEC3"
    },
    {
      "bufferView": 2,
      "byteOffset": 406308,
      "componentType": 5126,
      "count": 33859,
      "max": [
        1.0,
        1.0,
        1.0
      ],
      "min": [
        -1.0,
        -1.0,
        -1.0
      ],
      "type": "VEC3"
    },
    {
      "bufferView": 3,
      "componentType": 5126,
      "count": 33859,
      "max": [
        1.0,
        1.0,
        1.0,
        1.0
      ],
      "min": [
        -1.0,
        -1.0,
        -1.0,
        -1.0
      ],
      "type": "VEC4"
    },
    {
      "bufferView": 1,
      "componentType": 5126,
      "count": 33859,
      "max": [
        0.9995120167732239,
        0.9994980096817017
      ],
      "min": [
        0.0,
        0.0
      ],
      "type": "VEC2"
    },
    {
      "bufferView": 1,
      "byteOffset": 270872,
      "componentType": 5126,
      "count": 33859,
      "max": [
        0.9995120167732239,
        0.9994980096817017
      ],
      "min": [
        0.0,
        0.0
      ],
      "type": "VEC2"
    },
    {
      "bufferView": 1,
      "byteOffset": 541744,
      "componentType": 5126,
      "count": 33859,
      "max": [
        0.9995120167732239,
        0.9994980096817017
      ],
      "min": [
        0.0,
        0.0
      ],
      "type": "VEC2"
    },
    {
      "bufferView": 1,
      "byteOffset": 812616,
      "componentType": 5126,
      "count": 33859,
      "max": [
        0.9995120167732239,
        0.9994980096817017
      ],
      "min": [
        0.0,
        0.0
      ],
      "type": "VEC2"
    },
    {
      "bufferView": 0,
      "componentType": 5125,
      "count": 79812,
      "type": "SCALAR"
    },
    {
      "bufferView": 2,
      "byteOffset": 812616,
      "componentType": 5126,
      "count": 84,
      "max": [
        110.1033935546875,
        4.841987133026123,
        -7.503119945526123
      ],
      "min": [
        79.66827392578125,
        -4.8419880867004395,
        -14.173065185546875
      ],
      "type": "VEC3"
    },
    {
      "bufferView": 2,
      "byteOffset": 813624,
      "componentType": 5126,
      "count": 84,
      "max": [
        0.4850640892982483,
        0.9045385122299194,
        -0.39417415857315063
      ],
      "min": [
        -0.17020638287067413,
        -0.9045385122299194,
        -0.9992008209228516
      ],
      "type": "VEC3"
    },
    {
      "bufferView": 1,
      "byteOffset": 1083488,
      "componentType": 5126,
      "count": 84,
      "max": [
        0.9882810115814209,
        -0.016083000227808952
      ],
      "min": [
        0.01570099964737892,
        -0.9838870167732239
      ],
      "type": "VEC2"
    },
    {
      "bufferView": 0,
      "byteOffset": 319248,
      "componentType": 5125,
      "count": 408,
      "type": "SCALAR"
    },
    {
      "bufferView": 2,
      "byteOffset": 814632,
      "componentType": 5126,
      "count": 1908,
      "max": [
        110.1033935546875,
        6.523033142089844,
        -2.2240049839019775
      ],
      "min": [
        79.66827392578125,
        -6.52303409576416,
        -13.160293579101563
      ],
      "type": "VEC3"
    },
    {
      "bufferView": 2,
      "byteOffset": 837528,
      "componentType": 5126,
      "count": 1908,
      "max": [
        1.0,
        1.0,
        0.999960720539093
      ],
      "min": [
        -1.0,
        -1.0,
        -1.0
      ],
      "type": "VEC3"
    },
    {
      "bufferView": 1,
      "byteOffset": 1084160,
      "componentType": 5126,
      "count": 1908,
      "max": [
        0.8886719942092896,
        7.316405773162842
      ],
      "min": [
        -8.132811546325684,
        0.23974600434303284
      ],
      "type": "VEC2"
    },
    {
      "bufferView": 0,
      "byteOffset": 320880,
      "componentType": 5125,
      "count": 4404,
      "type": "SCALAR"
    },
    {
      "bufferView": 2,
      "byteOffset": 860424,
      "componentType": 5126,
      "count": 20,
      "max": [
        100.7878646850586,
        0.9205350279808044,
        -10.056296348571777
      ],
      "min": [
        100.14551544189453,
        -0.9152780175209045,
        -12.127696990966797
      ],
      "type": "VEC3"
    },
    {
      "bufferView": 2,
      "byteOffset": 860664,
      "componentType": 5126,
      "count": 20,
      "max": [
        0.9559346437454224,
        0.0,
        0.2936036288738251
      ],
      "min": [
        -0.9559310078620911,
        0.0,
        -0.29362133145332336
      ],
      "type": "VEC3"
    },
    {
      "bufferView": 1,
      "byteOffset": 1099424,
      "componentType": 5126,
      "count": 20,
      "max": [
        0.375,
        -0.75
      ],
      "min": [
        0.125,
        -1.0
      ],
      "type": "VEC2"
    },
    {
      "bufferView": 0,
      "byteOffset": 338496,
      "componentType": 5125,
      "count": 48,
      "type": "SCALAR"
    },
    {
      "bufferView": 2,
      "byteOffset": 860904,
      "componentType": 5126,
      "count": 84,
      "max": [
        3.1436240673065186,
        63.96359634399414,
        1.4346929788589478
      ],
      "min": [
        1.0835469961166382,
        -63.96359634399414,
        -0.21672199666500092
      ],
      "type": "VEC3"
    },
    {
      "bufferView": 2,
      "byteOffset": 861912,
      "componentType": 5126,
      "count": 84,
      "max": [
        0.6554073691368103,
        0.7191232442855835,
        0.8932123184204102
      ],
      "min": [
        -0.6685618162155151,
        -0.7191243171691895,
        -0.8840925693511963
      ],
      "type": "VEC3"
    },
    {
      "bufferView": 1,
      "byteOffset": 1099584,
      "componentType": 5126,
      "count": 84,
      "max": [
        2.0,
        -0.3332520127296448
      ],
      "min": [
        0.9995120167732239,
        -0.6665040254592896
      ],
      "type": "VEC2"
    },
    {
      "bufferView": 0,
      "byteOffset": 338688,
      "componentType": 5125,
      "count": 288,
      "type": "SCALAR"
    },
    {
      "bufferView": 2,
      "byteOffset": 862920,
      "componentType": 5126,
      "count": 324,
      "max": [
        90.336181640625,
        24.619964599609375,
        8.920013427734375
      ],
      "min": [
        11.463081359863281,
        -24.619964599609375,
        -0.22326800227165222
      ],
      "type": "VEC3"
    },
    {
      "bufferView": 2,
      "byteOffset": 866808,
      "componentType": 5126,
      "count": 324,
      "max": [
        0.9986670017242432,
        0.9998109340667725,
        0.9982616901397705
      ],
      "min": [
        -0.9988009929656982,
        -0.9998109936714172,
        -0.7807705998420715
      ],
      "type": "VEC3"
    },
    {
      "bufferView": 3,
      "byteOffset": 541744,
      "componentType": 5126,
      "count": 324,
      "max": [
        1.0,
        1.0,
        0.9923614859580994,
        1.0
      ],
      "min": [
        -0.39230725169181824,
        0.0,
        -0.9923614859580994,
        -1.0
      ],
      "type": "VEC4"
    },
    {
      "bufferView": 1,
      "byteOffset": 1100256,
      "componentType": 5126,
      "count": 324,
      "max": [
        0.8022459745407104,
        0.7290040254592896
      ],
      "min": [
        0.0007580000092275441,
        0.12793000042438507
      ],
      "type": "VEC2"
    },
    {
      "bufferView": 1,
      "byteOffset": 1102848,
      "componentType": 5126,
      "count": 324,
      "max": [
        0.8022459745407104,
        0.7290040254592896
      ],
      "min": [
        0.0007580000092275441,
        0.12793000042438507
      ],
      "type": "VEC2"
    },
    {
      "bufferView": 1,
      "byteOffset": 1105440,
      "componentType": 5126,
      "count": 324,
      "max": [
        0.8022459745407104,
        0.7290040254592896
      ],
      "min": [
        0.0007580000092275441,
        0.12793000042438507
      ],
      "type": "VEC2"
    },
    {
      "bufferView": 1,
      "byteOffset": 1108032,
      "componentType": 5126,
      "count": 324,
      "max": [
        0.8022459745407104,
        0.7290040254592896
      ],
      "min": [
        0.0007580000092275441,
        0.12793000042438507
      ],
      "type": "VEC2"
    },
    {
      "bufferView": 0,
      "byteOffset": 339840,
      "componentType": 5125,
      "count": 1128,
      "type": "SCALAR"
    },
    {
      "bufferView": 2,
      "byteOffset": 870696,
      "componentType": 5126,
      "count": 11975,
      "max": [
        90.34214782714844,
        27.355091094970703,
        20.515409469604492
      ],
      "min": [
        11.620843887329102,
        -27.355091094970703,
        -1.8689680099487305
      ],
      "type": "VEC3"
    },
    {
      "bufferView": 2,
      "byteOffset": 1014396,
      "componentType": 5126,
      "count": 11975,
      "max": [
        1.0,
        1.0,
        1.0
      ],
      "min": [
        -1.0,
        -1.0,
        -1.0
      ],
      "type": "VEC3"
    },
    {
      "bufferView": 3,
      "byteOffset": 546928,
      "componentType": 5126,
      "count": 11975,
      "max": [
        1.0,
        1.0,
        1.0,
        1.0
      ],
      "min": [
        -1.0,
        -1.0,
        -1.0,
        -1.0
      ],
      "type": "VEC4"
    },
    {
      "bufferView": 1,
      "byteOffset": 1110624,
      "componentType": 5126,
      "count": 11975,
      "max": [
        0.9990230202674866,
        0.9975090026855469
      ],
      "min": [
        0.0025599999353289604,
        0.12695300579071045
      ],
      "type": "VEC2"
    },
    {
      "bufferView": 1,
      "byteOffset": 1206424,
      "componentType": 5126,
      "count": 11975,
      "max": [
        0.9990230202674866,
        0.9975090026855469
      ],
      "min": [
        0.0025599999353289604,
        0.12695300579071045
      ],
      "type": "VEC2"
    },
    {
      "bufferView": 1,
      "byteOffset": 1302224,
      "componentType": 5126,
      "count": 11975,
      "max": [
        0.9990230202674866,
        0.9975090026855469
      ],
      "min": [
        0.0025599999353289604,
        0.12695300579071045
      ],
      "type": "VEC2"
    },
    {
      "bufferView": 1,
      "byteOffset": 1398024,
      "componentType": 5126,
      "count": 11975,
      "max": [
        0.9990230202674866,
        0.9975090026855469
      ],
      "min": [
        0.0025599999353289604,
        0.12695300579071045
      ],
      "type": "VEC2"
    },
    {
      "bufferView": 0,
      "byteOffset": 344352,
      "componentType": 5125,
      "count": 37068,
      "type": "SCALAR"
    },
    {
      "bufferView": 2,
      "byteOffset": 1158096,
      "componentType": 5126,
      "count": 60,
      "max": [
        79.638671875,
        1.5362770557403564,
        9.779468536376953
      ],
      "min": [
        79.54452514648438,
        -1.479740023612976,
        8.052889823913574
      ],
      "type": "VEC3"
    },
    {
      "bufferView": 2,
      "byteOffset": 1158816,
      "componentType": 5126,
      "count": 60,
      "max": [
        0.9986305832862854,
        0.0027078089769929647,
        -0.052316803485155106
      ],
      "min": [
        0.9985567331314087,
        -3.921561801689677e-05,
        -0.05363939702510834
      ],
      "type": "VEC3"
    },
    {
      "bufferView": 1,
      "byteOffset": 1493824,
      "componentType": 5126,
      "count": 60,
      "max": [
        0.9975590109825134,
        -0.8217769861221313
      ],
      "min": [
        0.984375,
        -0.8344730138778687
      ],
      "type": "VEC2"
    },
    {
      "bufferView": 0,
      "byteOffset": 492624,
      "componentType": 5125,
      "count": 60,
      "type": "SCALAR"
    }
  ],
  "asset": {
    "extras": {
      "author": "bohmerang (https://sketchfab.com/bohmerang)",
      "license": "CC-BY-NC-SA-4.0 (http://creativecommons.org/licenses/by-nc-sa/4.0/)",
      "source": "https://sketchfab.com/3d-models/f-22-raptor-updated-fighter-jet-free-7bfc05d3916b454da4960fc17c093874",
      "title": "F-22 Raptor (Updated) - Fighter Jet - Free"
    },
    "generator": "Sketchfab-15.55.0",
    "version": "2.0"
  },
  "bufferViews": [
    {
      "buffer": 0,
      "byteLength": 492864,
      "name": "floatBufferViews",
      "target": 34963
    },
    {
      "buffer": 0,
      "byteLength": 1494304,
      "byteOffset": 492864,
      "byteStride": 8,
      "name": "floatBufferViews",
      "target": 34962
    },
    {
      "buffer": 0,
      "byteLength": 1159536,
      "byteOffset": 1987168,
      "byteStride": 12,
      "name": "floatBufferViews",
      "target": 34962
    },
    {
      "buffer": 0,
      "byteLength": 738528,
      "byteOffset": 3146704,
      "byteStride": 16,
      "name": "floatBufferViews",
      "target": 34962
    }
  ],
  "buffers": [
    {
      "byteLength": 3885232,
      "uri": "scene.bin"
    }
  ],
  "images": [
    {
      "uri": "textures/f22a-airframe_baseColor.png"
    },
    {
      "uri": "textures/f22a-airframe_metallicRoughness.png"
    },
    {
      "uri": "textures/f22a-airframe_normal.png"
    }
  ],
  "materials": [
    {
      "doubleSided": true,
      "name": "f22a-airframe",
      "normalTexture": {
        "index": 2
      },
      "pbrMetallicRoughness": {
        "baseColorTexture": {
          "index": 0
        },
        "metallicRoughnessTexture": {
          "index": 1
        }
      }
    },
    {
      "alphaMode": "BLEND",
      "doubleSided": true,
      "name": "Glass",
      "pbrMetallicRoughness": {
        "baseColorFactor": [
          1.0,
          0.4382561862390775,
          0.06554228251978389,
          0.6
        ],
        "roughnessFactor": 0.0
      }
    },
    {
      "doubleSided": true,
      "name": "f22a-cockpit",
      "pbrMetallicRoughness": {
        "baseColorTexture": {
          "index": 0
        },
        "metallicFactor": 0.0,
        "roughnessFactor": 0.7
      }
    },
    {
      "alphaMode": "BLEND",
      "doubleSided": true,
      "name": "HudGlass",
      "pbrMetallicRoughness": {
        "baseColorFactor": [
          0.010949869464033278,
          0.2862107009672306,
          0.0,
          0.22439769072737764
        ],
        "roughnessFactor": 0.0
      }
    },
    {
      "doubleSided": true,
      "emissiveFactor": [
        1.0,
        1.0,
        1.0
      ],
      "name": "f22a-landingLights",
      "pbrMetallicRoughness": {
        "baseColorFactor": [
          0.8,
          0.8,
          0.8,
          1.0
        ],
        "metallicFactor": 0.0,
        "roughnessFactor": 0.0513167
      }
    }
  ],
  "meshes": [
    {
      "name": "Object_0",
      "primitives": [
        {
          "attributes": {
            "NORMAL": 1,
            "POSITION": 0,
            "TANGENT": 2,
            "TEXCOORD_0": 3,
            "TEXCOORD_1": 4,
            "TEXCOORD_2": 5,
            "TEXCOORD_3": 6
          },
          "indices": 7,
          "material": 0,
          "mode": 4
        }
      ]
    },
    {
      "name": "Object_1",
      "primitives": [
        {
          "attributes": {
            "NORMAL": 9,
            "POSITION": 8,
            "TEXCOORD_0": 10
          },
          "indices": 11,
          "material": 1,
          "mode": 4
        }
      ]
    },
    {
      "name": "Object_2",
      "primitives": [
        {
          "attributes": {
            "NORMAL": 13,
            "POSITION": 12,
            "TEXCOORD_0": 14
          },
          "indices": 15,
          "material": 2,
          "mode": 4
        }
      ]
    },
    {
      "name": "Object_3",
      "primitives": [
        {
          "attributes": {
            "NORMAL": 17,
            "POSITION": 16,
            "TEXCOORD_0": 18
          },
          "indices": 19,
          "material": 3,
          "mode": 4
        }
      ]
    },
    {
      "name": "Object_4",
      "primitives": [
        {
          "attributes": {
            "NORMAL": 21,
            "POSITION": 20,
            "TEXCOORD_0": 22
          },
          "indices": 23,
          "material": 1,
          "mode": 4
        }
      ]
    },
    {
      "name": "Object_5",
      "primitives": [
        {
          "attributes": {
            "NORMAL": 25,
            "POSITION": 24,
            "TANGENT": 26,
            "TEXCOORD_0": 27,
            "TEXCOORD_1": 28,
            "TEXCOORD_2": 29,
            "TEXCOORD_3": 30
          },
          "indices": 31,
          "material": 0,
          "mode": 4
        }
      ]
    },
    {
      "name": "Object_6",
      "primitives": [
        {
          "attributes": {
            "NORMAL": 33,
            "POSITION": 32,
            "TANGENT": 34,
            "TEXCOORD_0": 35,
            "TEXCOORD_1": 36,
            "TEXCOORD_2": 37,
            "TEXCOORD_3": 38
          },
          "indices": 39,
          "material": 0,
          "mode": 4
        }
      ]
    },
    {
      "name": "Object_7",
      "primitives": [
        {
          "attributes": {
            "NORMAL": 41,
            "POSITION": 40,
            "TEXCOORD_0": 42
          },
          "indices": 43,
          "material": 4,
          "mode": 4
        }
      ]
    }
  ],
  "nodes": [
    {
      "children": [
        1
      ],
      "matrix": [
        1.0,
        0.0,
        0.0,
        0.0,
        0.0,
        2.220446049250313e-16,
        -1.0,
        0.0,
        0.0,
        1.0,
        2.220446049250313e-16,
        0.0,
        0.0,
        0.0,
        0.0,
        1.0
      ],
      "name": "Sketchfab_model"
    },
    {
      "children": [
        2
      ],
      "name": "root"
    },
    {
      "children": [
        3,
        5,
        7,
        9,
        11,
        13,
        15,
        17
      ],
      "matrix": [
        1.0,
        0.0,
        0.0,
        0.0,
        0.0,
        2.220446049250313e-16,
        1.0,
        0.0,
        0.0,
        -1.0,
        2.220446049250313e-16,
        0.0,
        0.0,
        0.0,
        0.0,
        1.0
      ],
      "name": "GLTF_SceneRootNode"
    },
    {
      "children": [
        4
      ],
      "matrix": [
        1.0,
        0.0,
        0.0,
        0.0,
        0.0,
        8.429369480200677e-08,
        0.9999999999999966,
        0.0,
        0.0,
        -0.9999999999999966,
        8.429369480200677e-08,
        0.0,
        0.0,
        0.0,
        0.0,
        1.0
      ],
      "name": "f22a-airframe_0"
    },
    {
      "mesh": 0,
      "name": "Object_4"
    },
    {
      "children": [
        6
      ],
      "matrix": [
        1.0,
        0.0,
        0.0,
        0.0,
        0.0,
        8.429369480200677e-08,
        0.9999999999999966,
        0.0,
        0.0,
        -0.9999999999999966,
        8.429369480200677e-08,
        0.0,
        0.0,
        0.0,
        0.0,
        1.0
      ],
      "name": "f22a-canopy_1"
    },
    {
      "mesh": 1,
      "name": "Object_6"
    },
    {
      "children": [
        8
      ],
      "matrix": [
        1.0,
        0.0,
        0.0,
        0.0,
        0.0,
        8.429369480200677e-08,
        0.9999999999999966,
        0.0,
        0.0,
        -0.9999999999999966,
        8.429369480200677e-08,
        0.0,
        0.0,
        0.0,
        0.0,
        1.0
      ],
      "name": "f22a-cockpit_2"
    },
    {
      "mesh": 2,
      "name": "Object_8"
    },
    {
      "children": [
        10
      ],
      "matrix": [
        1.0,
        0.0,
        0.0,
        0.0,
        0.0,
        8.429369480200677e-08,
        0.9999999999999966,
        0.0,
        0.0,
        -0.9999999999999966,
        8.429369480200677e-08,
        0.0,
        0.0,
        0.0,
        0.0,
        1.0
      ],
      "name": "f22a-hud_3"
    },
    {
      "mesh": 3,
      "name": "Object_10"
    },
    {
      "children": [
        12
      ],
      "matrix": [
        1.0,
        0.0,
        0.0,
        0.0,
        0.0,
        8.429369480200677e-08,
        0.9999999999999966,
        0.0,
        0.0,
        -0.9999999999999966,
        8.429369480200677e-08,
        0.0,
        0.0,
        0.0,
        0.0,
        1.0
      ],
      "name": "f22a-instrGlass_4"
    },
    {
      "mesh": 4,
      "name": "Object_12"
    },
    {
      "children": [
        14
      ],
      "matrix": [
        1.0,
        0.0,
        0.0,
        0.0,
        0.0,
        8.429369480200677e-08,
        0.9999999999999966,
        0.0,
        0.0,
        -0.9999999999999966,
        8.429369480200677e-08,
        0.0,
        0.0,
        0.0,
        0.0,
        1.0
      ],
      "name": "f22a-landingOff_5"
    },
    {
      "mesh": 5,
      "name": "Object_14"
    },
    {
      "children": [
        16
      ],
      "matrix": [
        1.0,
        0.0,
        0.0,
        0.0,
        0.0,
        8.429369480200677e-08,
        0.9999999999999966,
        0.0,
        0.0,
        -0.9999999999999966,
        8.429369480200677e-08,
        0.0,
        0.0,
        0.0,
        0.0,
        1.0
      ],
      "name": "f22a-landingOn_6"
    },
    {
      "mesh": 6,
      "name": "Object_16"
    },
    {
      "children": [
        18
      ],
      "matrix": [
        1.0,
        0.0,
        0.0,
        0.0,
        0.0,
        8.429369480200677e-08,
        0.9999999999999966,
        0.0,
        0.0,
        -0.9999999999999966,
        8.429369480200677e-08,
        0.0,
        0.0,
        0.0,
        0.0,
        1.0
      ],
      "name": "f22a-landingOnLight_7"
    },
    {
      "mesh": 7,
      "name": "Object_18"
    }
  ],
  "samplers": [
    {
      "magFilter": 9729,
      "minFilter": 9987,
      "wrapS": 10497,
      "wrapT": 10497
    }
  ],
  "scene": 0,
  "scenes": [
    {
      "name": "Sketchfab_Scene",
      "nodes": [
        0
      ]
    }
  ],
  "textures": [
    {
      "sampler": 0,
      "source": 0
    },
    {
      "sampler": 0,
      "source": 1
    },
    {
      "sampler": 0,
      "source": 2
    }
  ]
}
